<mxfile host="app.diagrams.net" modified="2022-11-13T16:23:03.638Z" agent="5.0 (Windows NT 10.0; Win64; x64) AppleWebKit/537.36 (KHTML, like Gecko) Chrome/105.0.0.0 Safari/537.36 OPR/91.0.4516.106" etag="YUxuUuT6elzPUHRp_t0s" version="20.5.3" type="github">
  <diagram id="PNfyY8VU18iMyICgPXfp" name="Page-1">
    <mxGraphModel dx="997" dy="548" grid="1" gridSize="10" guides="1" tooltips="1" connect="1" arrows="1" fold="1" page="1" pageScale="1" pageWidth="827" pageHeight="1169" math="0" shadow="0">
      <root>
        <mxCell id="0" />
        <mxCell id="1" parent="0" />
        <mxCell id="OYm01S4pt-Ea7qVvPjUK-2" value="" style="shape=umlLifeline;participant=umlActor;perimeter=lifelinePerimeter;whiteSpace=wrap;html=1;container=1;collapsible=0;recursiveResize=0;verticalAlign=top;spacingTop=36;outlineConnect=0;" parent="1" vertex="1">
          <mxGeometry x="70" y="120" width="20" height="320" as="geometry" />
        </mxCell>
        <mxCell id="OYm01S4pt-Ea7qVvPjUK-3" value="Utilisateur" style="text;html=1;align=center;verticalAlign=middle;resizable=0;points=[];autosize=1;strokeColor=none;fillColor=none;" parent="1" vertex="1">
          <mxGeometry x="40" y="80" width="80" height="30" as="geometry" />
        </mxCell>
        <mxCell id="OYm01S4pt-Ea7qVvPjUK-9" value="" style="endArrow=classic;html=1;rounded=0;" parent="1" edge="1" target="rG-oNKwHLIuo4adMpALs-1" source="OYm01S4pt-Ea7qVvPjUK-2">
          <mxGeometry width="50" height="50" relative="1" as="geometry">
            <mxPoint x="79.5" y="180" as="sourcePoint" />
            <mxPoint x="279.5" y="180" as="targetPoint" />
            <Array as="points">
              <mxPoint x="180" y="180" />
            </Array>
          </mxGeometry>
        </mxCell>
        <mxCell id="OYm01S4pt-Ea7qVvPjUK-10" value="Réduire app" style="edgeLabel;html=1;align=center;verticalAlign=middle;resizable=0;points=[];" parent="OYm01S4pt-Ea7qVvPjUK-9" connectable="0" vertex="1">
          <mxGeometry x="-0.199" y="2" relative="1" as="geometry">
            <mxPoint x="21" as="offset" />
          </mxGeometry>
        </mxCell>
        <mxCell id="OYm01S4pt-Ea7qVvPjUK-11" value="" style="endArrow=classic;html=1;rounded=0;" parent="1" source="rG-oNKwHLIuo4adMpALs-1" target="rG-oNKwHLIuo4adMpALs-2" edge="1">
          <mxGeometry width="50" height="50" relative="1" as="geometry">
            <mxPoint x="279.5" y="200" as="sourcePoint" />
            <mxPoint x="479.5" y="200" as="targetPoint" />
            <Array as="points">
              <mxPoint x="390" y="200" />
            </Array>
          </mxGeometry>
        </mxCell>
        <mxCell id="OYm01S4pt-Ea7qVvPjUK-12" value="Demande réduire app" style="edgeLabel;html=1;align=center;verticalAlign=middle;resizable=0;points=[];" parent="OYm01S4pt-Ea7qVvPjUK-11" connectable="0" vertex="1">
          <mxGeometry x="-0.109" y="-1" relative="1" as="geometry">
            <mxPoint x="12" as="offset" />
          </mxGeometry>
        </mxCell>
        <mxCell id="OYm01S4pt-Ea7qVvPjUK-13" value="" style="endArrow=classic;html=1;rounded=0;" parent="1" source="rG-oNKwHLIuo4adMpALs-2" target="rG-oNKwHLIuo4adMpALs-1" edge="1">
          <mxGeometry width="50" height="50" relative="1" as="geometry">
            <mxPoint x="479.5" y="230" as="sourcePoint" />
            <mxPoint x="279.5" y="230" as="targetPoint" />
            <Array as="points">
              <mxPoint x="380" y="230" />
            </Array>
          </mxGeometry>
        </mxCell>
        <mxCell id="OYm01S4pt-Ea7qVvPjUK-14" value="Réduire fenêtre OK" style="edgeLabel;html=1;align=center;verticalAlign=middle;resizable=0;points=[];" parent="OYm01S4pt-Ea7qVvPjUK-13" connectable="0" vertex="1">
          <mxGeometry x="0.179" y="-1" relative="1" as="geometry">
            <mxPoint x="19" as="offset" />
          </mxGeometry>
        </mxCell>
        <mxCell id="OYm01S4pt-Ea7qVvPjUK-15" value="" style="endArrow=classic;html=1;rounded=0;" parent="1" source="rG-oNKwHLIuo4adMpALs-1" target="OYm01S4pt-Ea7qVvPjUK-2" edge="1">
          <mxGeometry width="50" height="50" relative="1" as="geometry">
            <mxPoint x="279.5" y="250" as="sourcePoint" />
            <mxPoint x="440" y="270" as="targetPoint" />
            <Array as="points">
              <mxPoint x="180" y="250" />
            </Array>
          </mxGeometry>
        </mxCell>
        <mxCell id="OYm01S4pt-Ea7qVvPjUK-16" value="Fenêtre réduite" style="edgeLabel;html=1;align=center;verticalAlign=middle;resizable=0;points=[];" parent="OYm01S4pt-Ea7qVvPjUK-15" connectable="0" vertex="1">
          <mxGeometry x="0.089" y="-1" relative="1" as="geometry">
            <mxPoint x="20" as="offset" />
          </mxGeometry>
        </mxCell>
        <mxCell id="OYm01S4pt-Ea7qVvPjUK-17" value="" style="endArrow=classic;html=1;rounded=0;" parent="1" source="OYm01S4pt-Ea7qVvPjUK-2" target="rG-oNKwHLIuo4adMpALs-1" edge="1">
          <mxGeometry width="50" height="50" relative="1" as="geometry">
            <mxPoint x="390" y="320" as="sourcePoint" />
            <mxPoint x="279.5" y="320" as="targetPoint" />
            <Array as="points">
              <mxPoint x="190" y="320" />
            </Array>
          </mxGeometry>
        </mxCell>
        <mxCell id="OYm01S4pt-Ea7qVvPjUK-18" value="Rétablir plein écran" style="edgeLabel;html=1;align=center;verticalAlign=middle;resizable=0;points=[];" parent="OYm01S4pt-Ea7qVvPjUK-17" connectable="0" vertex="1">
          <mxGeometry x="-0.079" y="-1" relative="1" as="geometry">
            <mxPoint as="offset" />
          </mxGeometry>
        </mxCell>
        <mxCell id="OYm01S4pt-Ea7qVvPjUK-19" value="" style="endArrow=classic;html=1;rounded=0;" parent="1" source="rG-oNKwHLIuo4adMpALs-2" target="rG-oNKwHLIuo4adMpALs-1" edge="1">
          <mxGeometry width="50" height="50" relative="1" as="geometry">
            <mxPoint x="479.5" y="380" as="sourcePoint" />
            <mxPoint x="279.5" y="380" as="targetPoint" />
            <Array as="points">
              <mxPoint x="390" y="380" />
            </Array>
          </mxGeometry>
        </mxCell>
        <mxCell id="OYm01S4pt-Ea7qVvPjUK-22" value="Rétablissement plein&lt;br&gt;écran OK" style="edgeLabel;html=1;align=center;verticalAlign=middle;resizable=0;points=[];" parent="OYm01S4pt-Ea7qVvPjUK-19" connectable="0" vertex="1">
          <mxGeometry x="0.039" y="-1" relative="1" as="geometry">
            <mxPoint as="offset" />
          </mxGeometry>
        </mxCell>
        <mxCell id="OYm01S4pt-Ea7qVvPjUK-20" value="" style="endArrow=classic;html=1;rounded=0;" parent="1" source="rG-oNKwHLIuo4adMpALs-1" target="rG-oNKwHLIuo4adMpALs-2" edge="1">
          <mxGeometry width="50" height="50" relative="1" as="geometry">
            <mxPoint x="279.5" y="340" as="sourcePoint" />
            <mxPoint x="479.5" y="340" as="targetPoint" />
            <Array as="points">
              <mxPoint x="380" y="340" />
            </Array>
          </mxGeometry>
        </mxCell>
        <mxCell id="OYm01S4pt-Ea7qVvPjUK-21" value="Demande rétablissement&lt;br&gt;plein écran" style="edgeLabel;html=1;align=center;verticalAlign=middle;resizable=0;points=[];" parent="OYm01S4pt-Ea7qVvPjUK-20" connectable="0" vertex="1">
          <mxGeometry x="-0.229" y="1" relative="1" as="geometry">
            <mxPoint x="24" y="1" as="offset" />
          </mxGeometry>
        </mxCell>
        <mxCell id="OYm01S4pt-Ea7qVvPjUK-23" value="" style="endArrow=classic;html=1;rounded=0;" parent="1" source="rG-oNKwHLIuo4adMpALs-1" target="OYm01S4pt-Ea7qVvPjUK-2" edge="1">
          <mxGeometry width="50" height="50" relative="1" as="geometry">
            <mxPoint x="279.5" y="410" as="sourcePoint" />
            <mxPoint x="440" y="260" as="targetPoint" />
            <Array as="points">
              <mxPoint x="190" y="410" />
            </Array>
          </mxGeometry>
        </mxCell>
        <mxCell id="OYm01S4pt-Ea7qVvPjUK-24" value="Plein écran rétabli" style="edgeLabel;html=1;align=center;verticalAlign=middle;resizable=0;points=[];" parent="OYm01S4pt-Ea7qVvPjUK-23" connectable="0" vertex="1">
          <mxGeometry x="0.099" relative="1" as="geometry">
            <mxPoint as="offset" />
          </mxGeometry>
        </mxCell>
        <mxCell id="rG-oNKwHLIuo4adMpALs-1" value="Interface Application" style="shape=umlLifeline;perimeter=lifelinePerimeter;whiteSpace=wrap;html=1;container=1;collapsible=0;recursiveResize=0;outlineConnect=0;fillColor=#dae8fc;strokeColor=#6c8ebf;" vertex="1" parent="1">
          <mxGeometry x="230" y="120" width="100" height="320" as="geometry" />
        </mxCell>
        <mxCell id="rG-oNKwHLIuo4adMpALs-2" value="Système d&#39;exploitation" style="shape=umlLifeline;perimeter=lifelinePerimeter;whiteSpace=wrap;html=1;container=1;collapsible=0;recursiveResize=0;outlineConnect=0;fillColor=#dae8fc;strokeColor=#6c8ebf;" vertex="1" parent="1">
          <mxGeometry x="430" y="120" width="100" height="320" as="geometry" />
        </mxCell>
      </root>
    </mxGraphModel>
  </diagram>
</mxfile>
